 <svg xmlns="http://www.w3.org/2000/svg" xmlns:xlink="http://www.w3.org/1999/xlink" width="24.876ex" height="5.179ex" viewBox="-0.5 -1466.5 10710.3 2230" role="img" focusable="false" style="vertical-align: -1.773ex; margin-left: -0.001ex;" aria-hidden="true"><g stroke="currentColor" fill="currentColor" stroke-width="0" transform="matrix(1 0 0 -1 0 0)"><path stroke-width="1" d="M634 653l-31 -154l-22 2c2 17 3 33 3 46c0 60 -35 73 -192 73c-57 0 -67 -4 -73 -26l-66 -233h78c90 0 101 12 139 97l18 -4l-68 -232l-20 5c5 22 7 34 7 52c0 17 -2 26 -7 31c-11 10 -38 15 -78 15h-78l-32 -112c-25 -88 -36 -134 -36 -146c0 -24 23 -34 79 -34 c98 0 152 12 203 39c32 17 56 45 94 98l16 -8l-62 -162h-507v16c56 10 65 16 81 74l123 442c6 20 11 52 11 64c0 27 -15 35 -77 41v16h497Z"/><g transform="translate(634,0)"><path stroke-width="1" d="M243 355l12 -57c70 107 107 143 151 143c24 0 41 -15 41 -37c0 -21 -14 -36 -34 -36c-19 0 -28 17 -52 17c-18 0 -54 -44 -98 -121c0 -7 2 -21 8 -45l32 -134c7 -28 16 -41 30 -41c13 0 24 10 47 40c9 12 13 18 21 28l15 -9c-58 -90 -84 -114 -122 -114 c-32 0 -47 18 -59 68l-29 119l-88 -119c-44 -59 -64 -68 -95 -68s-50 16 -50 42c0 20 14 36 34 36c9 0 19 -4 32 -11c10 -6 20 -9 26 -9c11 0 30 19 51 49l82 116l-28 124c-14 60 -21 68 -46 68c-8 0 -20 -2 -39 -7l-18 -5l-3 16l11 4c61 22 94 29 117 29 c25 0 37 -18 51 -86Z"/></g><g transform="translate(1415,0)"><path stroke-width="1" d="M637 320h-589v66h589v-66zM637 120h-589v66h589v-66Z"/></g><g transform="translate(2434,0)"><g transform="translate(111,-2)"><path stroke-width="1" d="M856 40l-53 -299h-745l392 510l-367 512h747v-251h-30c-21 135 -59 185 -192 185h-320l290 -391l-336 -434h414c112 0 148 68 170 168h30Z"/></g><g transform="translate(1025,488)"><path stroke-width="1" transform="scale(0.707)" d="M460 117l14 -13c-68 -93 -93 -113 -140 -113c-25 0 -47 16 -47 54c0 10 2 23 16 75l44 162c8 31 14 67 14 79c0 18 -9 29 -24 29c-40 0 -85 -49 -148 -142c-45 -67 -53 -90 -100 -248h-75l96 350c1 5 2 11 2 17c0 20 -14 26 -65 27v16c81 16 109 20 162 31l4 -2l-67 -218 c100 160 167 220 231 220c43 0 65 -25 65 -61c0 -18 -4 -39 -10 -60l-56 -203c-10 -36 -14 -53 -14 -61c0 -9 4 -18 16 -18c14 0 32 16 61 53c7 8 14 17 21 26Z"/></g><g transform="translate(1025,-298)"><path stroke-width="1" transform="scale(0.707)" d="M264 599c0 -28 -23 -51 -49 -51c-29 0 -48 21 -48 53c0 31 20 53 47 53s50 -26 50 -55zM222 114l13 -11c-55 -84 -87 -114 -137 -114c-33 0 -49 18 -49 55c0 20 7 55 22 111l48 177c5 18 9 36 9 44c0 20 -10 23 -64 24v16c39 3 59 6 160 25l4 -3l-94 -343 c-5 -17 -10 -30 -10 -44c0 -10 6 -15 14 -15c17 0 41 21 84 78Z"/><g transform="translate(196,0)"><path stroke-width="1" transform="scale(0.707)" d="M637 320h-589v66h589v-66zM637 120h-589v66h589v-66Z"/></g><g transform="translate(681,0)"><path stroke-width="1" transform="scale(0.707)" d="M394 0h-276v15c74 4 95 25 95 80v449c0 34 -9 49 -30 49c-10 0 -27 -5 -45 -12l-27 -10v14l179 91l9 -3v-597c0 -43 20 -61 95 -61v-15Z"/></g></g></g><g transform="translate(4595,0)"><path stroke-width="1" d="M264 599c0 -28 -23 -51 -49 -51c-29 0 -48 21 -48 53c0 31 20 53 47 53s50 -26 50 -55zM222 114l13 -11c-55 -84 -87 -114 -137 -114c-33 0 -49 18 -49 55c0 20 7 55 22 111l48 177c5 18 9 36 9 44c0 20 -10 23 -64 24v16c39 3 59 6 160 25l4 -3l-94 -343 c-5 -17 -10 -30 -10 -44c0 -10 6 -15 14 -15c17 0 41 21 84 78Z"/><g transform="translate(278,362)"><path stroke-width="1" transform="scale(0.707)" d="M61 510l-16 4c29 95 92 162 196 162c93 0 156 -55 156 -137c0 -48 -26 -98 -93 -138c44 -19 62 -31 83 -53c28 -31 44 -77 44 -129c0 -53 -17 -102 -46 -140c-48 -64 -143 -93 -232 -93c-73 0 -112 21 -112 57c0 21 18 36 41 36c17 0 33 -6 61 -26c37 -26 58 -31 86 -31 c74 0 130 68 130 153c0 76 -35 125 -104 145c-22 7 -45 10 -102 10v14c38 13 64 24 84 36c49 28 81 73 81 134c0 68 -42 102 -108 102c-62 0 -108 -32 -149 -106Z"/></g></g><g transform="translate(5660,0)"><path stroke-width="1" d="M637 320h-589v66h589v-66zM637 120h-589v66h589v-66Z"/></g><g transform="translate(6679,0)"><path stroke-width="1" d="M503 -243v-36c-213 200 -364 513 -364 922c0 400 151 752 364 923v-33c-134 -138 -269 -432 -269 -890c0 -456 135 -721 269 -886Z" transform="translate(0,-394)"/><g transform="translate(589,0)"><g transform="translate(120,0)"><rect stroke="none" width="2138" height="60" x="0" y="220"/><g transform="translate(59,545)"><path stroke-width="1" transform="scale(0.707)" d="M460 117l14 -13c-68 -93 -93 -113 -140 -113c-25 0 -47 16 -47 54c0 10 2 23 16 75l44 162c8 31 14 67 14 79c0 18 -9 29 -24 29c-40 0 -85 -49 -148 -142c-45 -67 -53 -90 -100 -248h-75l96 350c1 5 2 11 2 17c0 20 -14 26 -65 27v16c81 16 109 20 162 31l4 -2l-67 -218 c100 160 167 220 231 220c43 0 65 -25 65 -61c0 -18 -4 -39 -10 -60l-56 -203c-10 -36 -14 -53 -14 -61c0 -9 4 -18 16 -18c14 0 32 16 61 53c7 8 14 17 21 26Z"/><g transform="translate(353,0)"><path stroke-width="1" transform="scale(0.707)" d="M304 -161l-12 -16c-158 90 -244 259 -244 429c0 185 87 329 247 424l9 -16c-139 -119 -170 -212 -170 -405c0 -186 30 -299 170 -416Z"/><g transform="translate(235,0)"><path stroke-width="1" transform="scale(0.707)" d="M460 117l14 -13c-68 -93 -93 -113 -140 -113c-25 0 -47 16 -47 54c0 10 2 23 16 75l44 162c8 31 14 67 14 79c0 18 -9 29 -24 29c-40 0 -85 -49 -148 -142c-45 -67 -53 -90 -100 -248h-75l96 350c1 5 2 11 2 17c0 20 -14 26 -65 27v16c81 16 109 20 162 31l4 -2l-67 -218 c100 160 167 220 231 220c43 0 65 -25 65 -61c0 -18 -4 -39 -10 -60l-56 -203c-10 -36 -14 -53 -14 -61c0 -9 4 -18 16 -18c14 0 32 16 61 53c7 8 14 17 21 26Z"/></g><g transform="translate(589,0)"><path stroke-width="1" transform="scale(0.707)" d="M636 220h-261v-261h-66v261h-261v66h261v261h66v-261h261v-66Z"/></g><g transform="translate(1074,0)"><path stroke-width="1" transform="scale(0.707)" d="M394 0h-276v15c74 4 95 25 95 80v449c0 34 -9 49 -30 49c-10 0 -27 -5 -45 -12l-27 -10v14l179 91l9 -3v-597c0 -43 20 -61 95 -61v-15Z"/></g><g transform="translate(1428,0)"><path stroke-width="1" transform="scale(0.707)" d="M29 660l12 16c153 -92 244 -259 244 -429c0 -185 -88 -327 -247 -424l-9 16c142 117 170 211 170 405c0 187 -25 302 -170 416Z"/></g></g></g><g transform="translate(892,-399)"><path stroke-width="1" transform="scale(0.707)" d="M474 137l-54 -137h-391v12l178 189c94 99 130 175 130 260c0 91 -54 141 -139 141c-72 0 -107 -32 -147 -130l-21 5c21 117 85 199 208 199c113 0 185 -77 185 -176c0 -79 -39 -154 -128 -248l-165 -176h234c42 0 63 11 96 67Z"/></g></g></g><path stroke-width="1" d="M114 1530v36c213 -200 364 -514 364 -923c0 -400 -151 -751 -364 -922v33c134 138 269 435 269 889c0 460 -135 722 -269 887Z" transform="translate(2967,-394)"/><g transform="translate(3576,900)"><path stroke-width="1" transform="scale(0.707)" d="M474 137l-54 -137h-391v12l178 189c94 99 130 175 130 260c0 91 -54 141 -139 141c-72 0 -107 -32 -147 -130l-21 5c21 117 85 199 208 199c113 0 185 -77 185 -176c0 -79 -39 -154 -128 -248l-165 -176h234c42 0 63 11 96 67Z"/></g></g></g></svg>