 <svg xmlns="http://www.w3.org/2000/svg" xmlns:xlink="http://www.w3.org/1999/xlink" width="24.026ex" height="5.724ex" viewBox="0 -1583.6 10344.5 2464.3" role="img" focusable="false" style="vertical-align: -2.045ex;" aria-hidden="true"><g stroke="currentColor" fill="currentColor" stroke-width="0" transform="matrix(1 0 0 -1 0 0)"><path stroke-width="1" d="M221 334l-50 -288c69 -6 96 -7 137 -7c54 0 127 5 147 9c22 5 31 17 41 53l16 60h27l-5 -26c-9 -49 -14 -79 -16 -99l-4 -36l-33 -1c-33 -1 -58 -2 -72 -2l-225 3c-20 0 -82 -1 -113 -2l-41 -1l5 26c44 7 56 14 60 32l87 504c5 30 9 62 9 76c0 18 -11 26 -35 27l-54 2 l3 28l45 -1c10 0 184 -2 193 -1l120 1c24 1 35 1 38 1c18 0 48 -1 69 -3c-11 -38 -18 -88 -21 -152h-24l-8 89c-1 15 -42 24 -104 24c-22 0 -105 -3 -137 -4l-47 -270h37c78 0 138 2 219 6l4 -7l-19 -45l-132 4h-117Z"/><g transform="translate(610,0)"><path stroke-width="1" d="M9 1c4 26 12 52 12 87l20 3l11 -28c2 -5 13 -9 28 -9c28 0 62 32 105 99l40 62l-11 62c-17 98 -39 139 -72 139c-19 0 -39 -14 -69 -48l-17 10l58 83c9 13 31 21 57 21c59 0 86 -36 98 -135l6 -48l37 55c62 92 102 128 142 128c9 0 18 -3 30 -10l-15 -85l-14 -4 c-5 15 -17 23 -33 23c-31 0 -58 -23 -105 -88l-35 -49l18 -101c5 -29 16 -66 25 -85c10 -20 23 -30 38 -30c16 0 41 15 77 45l9 -19l-49 -44c-32 -29 -64 -46 -86 -46c-36 0 -59 39 -72 124l-11 69l-76 -117c-31 -47 -70 -76 -103 -76c-12 0 -28 4 -43 12Z"/></g><g transform="translate(1443,0)"><path stroke-width="1" d="M604 347h-539v59h539v-59zM604 134h-539v59h539v-59Z"/></g><g transform="translate(2445,0)"><g transform="translate(111,95)"><path stroke-width="1" d="M788 13h-42c-12 -87 -32 -145 -66 -175c-32 -28 -88 -43 -168 -43h-298l310 399l-278 384h252c74 0 128 -19 164 -56c32 -36 56 -94 70 -176h36l-14 274h-688l354 -487l-358 -443h710Z"/></g><g transform="translate(961,442)"><path stroke-width="1" transform="scale(0.707)" d="M24 388l28 20c73 52 112 74 133 74c15 0 23 -12 23 -33c0 -11 -2 -23 -6 -41l-38 -161c52 73 80 107 118 142c59 55 128 93 170 93c20 0 31 -13 31 -36c0 -17 -4 -45 -11 -74l-66 -276c-1 -4 -2 -15 -2 -20c0 -11 6 -20 13 -20c10 0 32 11 61 30l26 17l10 -18 c-98 -73 -134 -94 -160 -94c-19 0 -30 15 -30 40c0 16 4 39 13 76l52 212c8 32 11 53 11 71c0 15 -6 24 -17 24c-45 0 -120 -62 -174 -146c-46 -69 -67 -134 -86 -260c-22 -4 -45 -10 -70 -17l-7 11c41 143 82 336 82 387c0 15 -7 25 -18 25c-7 0 -10 -2 -47 -25l-32 -21Z"/></g><g transform="translate(961,-252)"><path stroke-width="1" transform="scale(0.707)" d="M34 388l28 20c75 53 112 74 134 74c16 0 25 -9 25 -26c0 -8 -2 -19 -6 -36l-77 -304c-5 -21 -7 -30 -7 -40s6 -20 13 -20c9 0 32 11 61 30l26 17l10 -18c-98 -73 -134 -94 -160 -94c-19 0 -30 15 -30 39c0 19 5 46 13 77l66 240c4 14 8 37 8 44c0 13 -8 23 -18 23 c-7 0 -10 -2 -47 -25l-32 -21zM228 712c21 0 36 -17 36 -41c0 -38 -24 -67 -55 -67c-24 0 -39 16 -39 41c0 34 29 67 58 67Z"/><g transform="translate(196,0)"><path stroke-width="1" transform="scale(0.707)" d="M604 347h-539v59h539v-59zM604 134h-539v59h539v-59Z"/></g><g transform="translate(668,0)"><path stroke-width="1" transform="scale(0.707)" d="M418 -3c-16 0 -126 3 -157 3c-11 0 -11 0 -165 -3v30l56 3c54 3 65 14 65 66v518l-150 -66l-7 50l241 102v-604c0 -52 10 -63 65 -66l52 -3v-30Z"/></g></g></g><g transform="translate(4528,0)"><path stroke-width="1" d="M34 388l28 20c75 53 112 74 134 74c16 0 25 -9 25 -26c0 -8 -2 -19 -6 -36l-77 -304c-5 -21 -7 -30 -7 -40s6 -20 13 -20c9 0 32 11 61 30l26 17l10 -18c-98 -73 -134 -94 -160 -94c-19 0 -30 15 -30 39c0 19 5 46 13 77l66 240c4 14 8 37 8 44c0 13 -8 23 -18 23 c-7 0 -10 -2 -47 -25l-32 -21zM228 712c21 0 36 -17 36 -41c0 -38 -24 -67 -55 -67c-24 0 -39 16 -39 41c0 34 29 67 58 67Z"/><g transform="translate(277,362)"><path stroke-width="1" transform="scale(0.707)" d="M462 224c0 -137 -155 -244 -278 -244c-37 0 -81 8 -134 26c-6 50 -14 86 -35 147l27 10c19 -54 32 -77 56 -99c30 -28 71 -43 117 -43c93 0 154 67 154 169c0 91 -48 144 -131 144c-27 0 -46 -5 -84 -22l-7 6l12 53l15 -1c13 -1 24 -2 32 -2c71 0 130 63 130 138 c0 63 -53 116 -118 116c-52 0 -115 -34 -126 -68l-18 -56h-31l29 124c48 48 93 67 161 67c111 0 185 -59 185 -148c0 -59 -30 -105 -110 -167c47 -8 154 -29 154 -150Z"/></g></g><g transform="translate(5592,0)"><path stroke-width="1" d="M604 347h-539v59h539v-59zM604 134h-539v59h539v-59Z"/></g><g transform="translate(6594,0)"><path stroke-width="1" d="M388 -732l-14 -43c-55 83 -290 323 -290 1020c0 698 235 938 290 1021l14 -43c-159 -240 -202 -589 -202 -978s43 -737 202 -977Z" transform="translate(0,4)"/><g transform="translate(427,0)"><g transform="translate(120,0)"><rect stroke="none" width="2201" height="60" x="0" y="220"/><g transform="translate(60,572)"><path stroke-width="1" transform="scale(0.707)" d="M24 388l28 20c73 52 112 74 133 74c15 0 23 -12 23 -33c0 -11 -2 -23 -6 -41l-38 -161c52 73 80 107 118 142c59 55 128 93 170 93c20 0 31 -13 31 -36c0 -17 -4 -45 -11 -74l-66 -276c-1 -4 -2 -15 -2 -20c0 -11 6 -20 13 -20c10 0 32 11 61 30l26 17l10 -18 c-98 -73 -134 -94 -160 -94c-19 0 -30 15 -30 40c0 16 4 39 13 76l52 212c8 32 11 53 11 71c0 15 -6 24 -17 24c-45 0 -120 -62 -174 -146c-46 -69 -67 -134 -86 -260c-22 -4 -45 -10 -70 -17l-7 11c41 143 82 336 82 387c0 15 -7 25 -18 25c-7 0 -10 -2 -47 -25l-32 -21Z"/><g transform="translate(392,0)"><path stroke-width="1" transform="scale(0.707)" d="M146 266c0 -281 109 -403 155 -460l-19 -21c-82 77 -114 116 -149 183c-48 90 -73 191 -73 298c0 276 165 409 222 460l19 -26c-58 -68 -155 -174 -155 -434Z"/><g transform="translate(235,0)"><path stroke-width="1" transform="scale(0.707)" d="M24 388l28 20c73 52 112 74 133 74c15 0 23 -12 23 -33c0 -11 -2 -23 -6 -41l-38 -161c52 73 80 107 118 142c59 55 128 93 170 93c20 0 31 -13 31 -36c0 -17 -4 -45 -11 -74l-66 -276c-1 -4 -2 -15 -2 -20c0 -11 6 -20 13 -20c10 0 32 11 61 30l26 17l10 -18 c-98 -73 -134 -94 -160 -94c-19 0 -30 15 -30 40c0 16 4 39 13 76l52 212c8 32 11 53 11 71c0 15 -6 24 -17 24c-45 0 -120 -62 -174 -146c-46 -69 -67 -134 -86 -260c-22 -4 -45 -10 -70 -17l-7 11c41 143 82 336 82 387c0 15 -7 25 -18 25c-7 0 -10 -2 -47 -25l-32 -21Z"/></g><g transform="translate(627,0)"><path stroke-width="1" transform="scale(0.707)" d="M604 241h-240v-241h-59v241h-240v59h240v238h59v-238h240v-59Z"/></g><g transform="translate(1100,0)"><path stroke-width="1" transform="scale(0.707)" d="M418 -3c-16 0 -126 3 -157 3c-11 0 -11 0 -165 -3v30l56 3c54 3 65 14 65 66v518l-150 -66l-7 50l241 102v-604c0 -52 10 -63 65 -66l52 -3v-30Z"/></g><g transform="translate(1453,0)"><path stroke-width="1" transform="scale(0.707)" d="M51 726c57 -51 222 -184 222 -461c0 -288 -169 -430 -222 -480l-19 21c51 63 155 184 155 460c0 260 -100 370 -155 434Z"/></g></g></g><g transform="translate(924,-408)"><path stroke-width="1" transform="scale(0.707)" d="M16 23l170 181c113 120 155 194 155 269c0 85 -55 139 -141 139c-67 0 -103 -25 -119 -83l-13 -46h-29l17 136c49 50 98 70 170 70c127 0 205 -71 205 -186c0 -75 -30 -130 -127 -233l-182 -193c185 4 231 0 346 5v-85c-193 0 -193 3 -229 3s-36 -3 -223 -3v26Z"/></g></g></g><path stroke-width="1" d="M40 -732l14 -43c55 83 290 323 290 1020c0 698 -235 938 -290 1021l-14 -43c159 -240 202 -589 202 -978s-43 -737 -202 -977Z" transform="translate(2869,4)"/><g transform="translate(3296,998)"><path stroke-width="1" transform="scale(0.707)" d="M16 23l170 181c113 120 155 194 155 269c0 85 -55 139 -141 139c-67 0 -103 -25 -119 -83l-13 -46h-29l17 136c49 50 98 70 170 70c127 0 205 -71 205 -186c0 -75 -30 -130 -127 -233l-182 -193c185 4 231 0 346 5v-85c-193 0 -193 3 -229 3s-36 -3 -223 -3v26Z"/></g></g></g></svg>