 <svg xmlns="http://www.w3.org/2000/svg" xmlns:xlink="http://www.w3.org/1999/xlink" width="25.868ex" height="4.363ex" viewBox="0 -1349.3 11137.7 1878.5" role="img" focusable="false" style="vertical-align: -1.229ex;" aria-hidden="true"><g stroke="currentColor" fill="currentColor" stroke-width="0" transform="matrix(1 0 0 -1 0 0)"><path stroke-width="1" d="M570 689c-11 -38 -18 -88 -21 -152h-24l-8 89c-1 15 -42 24 -107 24c-99 -2 -74 -2 -130 -4c-4 -8 -6 -16 -9 -32l-42 -238h37l219 6l4 -7l-19 -45c-31 1 -6 4 -132 4h-117l-43 -253c-2 -12 -2 -23 -2 -35c63 -6 90 -7 131 -7c60 0 131 5 150 10c21 5 30 17 39 52l16 60 h27c-8 -41 -16 -83 -21 -125l-4 -36c-39 -1 -19 -3 -105 -3l-225 3l-154 -3l5 26c44 7 57 14 60 32l87 504c6 32 9 62 9 77c0 17 -11 25 -35 26l-54 2l3 28l160 -3l236 3c23 0 47 -1 69 -3Z"/><g transform="translate(611,0)"><path stroke-width="1" d="M484 472l-15 -85l-14 -4c-5 15 -17 23 -33 23c-31 0 -58 -23 -105 -88l-35 -49l18 -101c5 -29 16 -66 25 -85c10 -20 23 -30 38 -30c16 0 41 15 77 45l9 -19l-49 -44c-32 -29 -64 -46 -86 -46c-36 0 -58 39 -72 124l-11 69l-76 -117c-31 -47 -70 -76 -103 -76 c-12 0 -28 4 -43 12c1 7 2 10 4 22c6 32 8 45 8 65l20 3l11 -28c2 -5 13 -9 28 -9c28 0 62 32 105 99l40 62l-11 62c-17 98 -39 139 -72 139c-19 0 -39 -14 -69 -48l-17 10l58 83c9 13 31 21 57 21c59 0 86 -36 98 -135l6 -48l37 55c62 92 102 128 142 128c9 0 18 -3 30 -10 Z"/></g><g transform="translate(1445,0)"><path stroke-width="1" d="M680 330h-600c2 10 3 20 3 30s-1 20 -3 30h600c-2 -10 -3 -20 -3 -30s1 -20 3 -30zM680 110h-600c2 10 3 20 3 30s-1 20 -3 30h600c-2 -10 -3 -20 -3 -30s1 -20 3 -30Z"/></g><g transform="translate(2539,0)"><g transform="translate(111,0)"><path stroke-width="1" d="M903 -17c-6 -58 -7 -140 -7 -233l-363 3l-453 -3v30l334 460l-334 479l4 31l245 -3l502 3c-2 -40 -3 -59 -3 -87s1 -48 3 -88h-36l-7 77c-3 42 -32 51 -222 51h-349l292 -420l-320 -439h436c212 0 227 6 235 78l6 61h37Z"/></g><g transform="translate(1094,477)"><path stroke-width="1" transform="scale(0.707)" d="M514 85c-98 -73 -134 -94 -160 -94c-19 0 -30 15 -30 40c0 16 4 39 13 76l52 212c8 32 11 53 11 71c0 15 -6 24 -17 24c-45 0 -119 -62 -174 -146c-45 -69 -67 -134 -86 -260c-22 -4 -45 -10 -70 -17l-7 11c41 143 82 336 82 387c0 15 -7 25 -18 25c-7 0 -11 -1 -47 -25 l-32 -21l-7 20l28 20c73 52 112 74 133 74c15 0 23 -12 23 -33c0 -11 -2 -23 -6 -41l-38 -161c52 73 80 107 118 142c59 55 128 93 170 93c20 0 31 -13 31 -36c0 -17 -4 -45 -11 -74l-66 -276c-1 -4 -2 -15 -2 -20c0 -11 6 -20 13 -20c10 0 32 11 61 30l26 17Z"/></g><g transform="translate(1094,-287)"><path stroke-width="1" transform="scale(0.707)" d="M241 85c-97 -72 -134 -94 -160 -94c-19 0 -30 15 -30 39c0 20 4 45 13 77l66 240c4 15 8 36 8 44c0 12 -7 21 -17 21c-9 0 -19 -4 -48 -23l-32 -21l-7 20l28 20c76 54 112 74 134 74c17 0 25 -9 25 -26c0 -9 -2 -19 -6 -36l-77 -304c-6 -22 -7 -30 -7 -40 c0 -11 6 -20 13 -20c10 0 31 10 61 30l26 17zM266 629c0 -38 -23 -67 -54 -67c-25 0 -40 16 -40 41c0 34 28 67 58 67c21 0 36 -17 36 -41Z"/><g transform="translate(196,0)"><path stroke-width="1" transform="scale(0.707)" d="M680 330h-600c2 10 3 20 3 30s-1 20 -3 30h600c-2 -10 -3 -20 -3 -30s1 -20 3 -30zM680 110h-600c2 10 3 20 3 30s-1 20 -3 30h600c-2 -10 -3 -20 -3 -30s1 -20 3 -30Z"/></g><g transform="translate(734,0)"><path stroke-width="1" transform="scale(0.707)" d="M418 -3l-157 3l-165 -3v30l56 3c54 3 65 14 65 66v485c0 24 -2 33 -8 33l-3 -1l-129 -58h-10l-7 43c91 32 162 62 227 96l14 -5v-593c0 -52 10 -63 65 -66l52 -3v-30Z"/></g></g></g><g transform="translate(4822,0)"><path stroke-width="1" d="M241 85c-97 -72 -134 -94 -160 -94c-19 0 -30 15 -30 39c0 20 4 45 13 77l66 240c4 15 8 36 8 44c0 12 -7 21 -17 21c-9 0 -19 -4 -48 -23l-32 -21l-7 20l28 20c76 54 112 74 134 74c17 0 25 -9 25 -26c0 -9 -2 -19 -6 -36l-77 -304c-6 -22 -7 -30 -7 -40 c0 -11 6 -20 13 -20c10 0 31 10 61 30l26 17zM266 629c0 -38 -23 -67 -54 -67c-25 0 -40 16 -40 41c0 34 28 67 58 67c21 0 36 -17 36 -41Z"/><g transform="translate(278,362)"><path stroke-width="1" transform="scale(0.707)" d="M462 224c0 -47 -17 -91 -51 -132c-55 -67 -147 -112 -227 -112c-37 0 -81 8 -134 26c-6 50 -14 86 -35 147l27 10c19 -54 32 -77 56 -99c30 -28 71 -43 117 -43c93 0 154 67 154 169c0 91 -48 144 -131 144c-27 0 -46 -5 -84 -22l-7 6l12 53s39 -3 47 -3 c71 0 130 63 130 138c0 63 -53 116 -118 116c-52 0 -115 -34 -126 -68l-18 -56h-31l29 124c48 48 93 67 161 67c111 0 185 -59 185 -148c0 -59 -30 -105 -110 -167c50 -9 73 -17 98 -35c36 -25 56 -67 56 -115Z"/></g></g><g transform="translate(5887,0)"><path stroke-width="1" d="M680 330h-600c2 10 3 20 3 30s-1 20 -3 30h600c-2 -10 -3 -20 -3 -30s1 -20 3 -30zM680 110h-600c2 10 3 20 3 30s-1 20 -3 30h600c-2 -10 -3 -20 -3 -30s1 -20 3 -30Z"/></g><g transform="translate(6981,0)"><path stroke-width="1" d="M444 927c-166 -166 -243 -376 -243 -591v-172c0 -215 77 -425 243 -591c-6 -3 -11 -7 -16 -12s-9 -10 -12 -16c-177 177 -285 390 -285 619v172c0 229 108 442 285 619c3 -6 7 -11 12 -16s10 -9 16 -12Z"/><g transform="translate(531,0)"><g transform="translate(120,0)"><rect stroke="none" width="2399" height="60" x="0" y="220"/><g transform="translate(60,536)"><path stroke-width="1" transform="scale(0.707)" d="M514 85c-98 -73 -134 -94 -160 -94c-19 0 -30 15 -30 40c0 16 4 39 13 76l52 212c8 32 11 53 11 71c0 15 -6 24 -17 24c-45 0 -119 -62 -174 -146c-45 -69 -67 -134 -86 -260c-22 -4 -45 -10 -70 -17l-7 11c41 143 82 336 82 387c0 15 -7 25 -18 25c-7 0 -11 -1 -47 -25 l-32 -21l-7 20l28 20c73 52 112 74 133 74c15 0 23 -12 23 -33c0 -11 -2 -23 -6 -41l-38 -161c52 73 80 107 118 142c59 55 128 93 170 93c20 0 31 -13 31 -36c0 -17 -4 -45 -11 -74l-66 -276c-1 -4 -2 -15 -2 -20c0 -11 6 -20 13 -20c10 0 32 11 61 30l26 17Z"/><g transform="translate(393,0)"><path stroke-width="1" transform="scale(0.707)" d="M344 636c-111 -112 -164 -237 -164 -353v-66c0 -116 53 -241 164 -353c-6 -3 -11 -7 -16 -12s-9 -10 -12 -16c-123 123 -196 254 -196 381v66c0 127 73 258 196 381c3 -6 7 -11 12 -16s10 -9 16 -12Z"/><g transform="translate(300,0)"><path stroke-width="1" transform="scale(0.707)" d="M514 85c-98 -73 -134 -94 -160 -94c-19 0 -30 15 -30 40c0 16 4 39 13 76l52 212c8 32 11 53 11 71c0 15 -6 24 -17 24c-45 0 -119 -62 -174 -146c-45 -69 -67 -134 -86 -260c-22 -4 -45 -10 -70 -17l-7 11c41 143 82 336 82 387c0 15 -7 25 -18 25c-7 0 -11 -1 -47 -25 l-32 -21l-7 20l28 20c73 52 112 74 133 74c15 0 23 -12 23 -33c0 -11 -2 -23 -6 -41l-38 -161c52 73 80 107 118 142c59 55 128 93 170 93c20 0 31 -13 31 -36c0 -17 -4 -45 -11 -74l-66 -276c-1 -4 -2 -15 -2 -20c0 -11 6 -20 13 -20c10 0 32 11 61 30l26 17Z"/></g><g transform="translate(693,0)"><path stroke-width="1" transform="scale(0.707)" d="M680 220h-270v-270c-10 2 -20 3 -30 3s-20 -1 -30 -3v270h-270c2 10 3 20 3 30s-1 20 -3 30h270v270c10 -2 20 -3 30 -3s20 1 30 3v-270h270c-2 -10 -3 -20 -3 -30s1 -20 3 -30Z"/></g><g transform="translate(1231,0)"><path stroke-width="1" transform="scale(0.707)" d="M418 -3l-157 3l-165 -3v30l56 3c54 3 65 14 65 66v485c0 24 -2 33 -8 33l-3 -1l-129 -58h-10l-7 43c91 32 162 62 227 96l14 -5v-593c0 -52 10 -63 65 -66l52 -3v-30Z"/></g><path stroke-width="1" transform="translate(1585,0) scale(0.707)" d="M304 217c0 -127 -73 -258 -196 -381c-3 6 -7 11 -12 16s-10 9 -16 12c111 112 164 237 164 353v66c0 116 -53 241 -164 353c6 3 11 7 16 12s9 10 12 16c123 -123 196 -254 196 -381v-66Z"/></g></g><g transform="translate(1022,-408)"><path stroke-width="1" transform="scale(0.707)" d="M468 -3l-229 3l-223 -3v26l170 181c113 120 155 194 155 269c0 85 -55 139 -141 139c-67 0 -103 -25 -119 -83l-13 -46h-29l17 136c49 50 98 70 170 70c127 0 205 -71 205 -186c0 -75 -30 -130 -127 -233l-182 -193l346 10c-2 -22 -2 -32 -2 -45c0 -14 0 -24 2 -45Z"/></g></g></g><path stroke-width="1" d="M400 164c0 -229 -108 -442 -285 -619c-3 6 -7 11 -12 16s-10 9 -16 12c166 166 243 376 243 591v172c0 215 -77 425 -243 591c6 3 11 7 16 12s9 10 12 16c177 -177 285 -390 285 -619v-172Z" transform="translate(3170,0)"/><g transform="translate(3702,754)"><path stroke-width="1" transform="scale(0.707)" d="M468 -3l-229 3l-223 -3v26l170 181c113 120 155 194 155 269c0 85 -55 139 -141 139c-67 0 -103 -25 -119 -83l-13 -46h-29l17 136c49 50 98 70 170 70c127 0 205 -71 205 -186c0 -75 -30 -130 -127 -233l-182 -193l346 10c-2 -22 -2 -32 -2 -45c0 -14 0 -24 2 -45Z"/></g></g></g></svg>