 <svg xmlns="http://www.w3.org/2000/svg" xmlns:xlink="http://www.w3.org/1999/xlink" width="24.461ex" height="4.227ex" viewBox="-0.5 -1290.7 10531.8 1819.9" role="img" focusable="false" style="vertical-align: -1.229ex; margin-left: -0.001ex;" aria-hidden="true"><g stroke="currentColor" fill="currentColor" stroke-width="0" transform="matrix(1 0 0 -1 0 0)"><path stroke-width="1" d="M634 653l-31 -153l-21 2c1 17 2 32 2 45c0 60 -35 73 -192 73c-57 0 -67 -4 -73 -26l-66 -233l79 2c90 3 100 10 138 95l18 -4l-68 -232l-20 5c5 22 7 34 7 52c0 17 -2 26 -7 31c-11 10 -39 16 -78 15l-78 3l-32 -115c-25 -88 -36 -134 -36 -146c0 -24 23 -34 79 -34 c76 0 144 10 181 27c43 20 69 45 116 110l16 -8l-62 -162h-507v16c56 10 63 16 81 74l123 442c5 20 11 52 11 64c0 27 -15 35 -77 41v16h497Z"/><g transform="translate(634,0)"><path stroke-width="1" d="M447 404c0 -21 -14 -36 -34 -36c-9 0 -16 2 -28 9c-9 5 -18 8 -24 8c-18 0 -54 -44 -98 -121c0 -15 12 -69 36 -163c1 -2 2 -7 4 -16c7 -28 16 -41 30 -41c13 0 24 10 47 40c9 12 14 17 22 27l14 -8c-58 -90 -84 -114 -122 -114c-32 0 -45 15 -58 67l-30 120l-90 -118 c-50 -60 -62 -69 -93 -69s-50 16 -50 42c0 20 14 35 34 35c9 0 19 -3 32 -10c10 -6 20 -9 26 -9c11 0 30 18 51 48l82 117l-29 123c-14 60 -20 69 -45 69c-8 0 -20 -2 -39 -7l-17 -4l-4 15l11 4c62 21 94 29 117 29c27 0 38 -20 52 -88l11 -55c70 107 107 143 151 143 c24 0 41 -15 41 -37Z"/></g><g transform="translate(1415,0)"><path stroke-width="1" d="M580 320h-500v52h500v-52zM580 128h-500v52h500v-52Z"/></g><g transform="translate(2409,0)"><g transform="translate(111,0)"><path stroke-width="1" d="M864 -11l-57 -216h-727v21c14 4 24 14 32 25l328 421l-332 443c-10 12 -17 20 -28 23v21h717l4 -155h-27c-15 91 -44 113 -206 113h-308l286 -382l-332 -427h499c69 0 86 18 120 113h31Z"/></g><g transform="translate(1055,454)"><path stroke-width="1" transform="scale(0.707)" d="M474 104c-70 -93 -95 -113 -140 -113c-33 0 -47 16 -47 54c0 10 3 23 16 75l44 165c8 31 14 64 14 76c0 18 -9 29 -24 29c-37 0 -88 -49 -148 -142c-44 -68 -53 -90 -100 -248h-75l96 350c1 5 2 11 2 17c0 20 -13 26 -64 27v16l162 31l3 -2l-67 -218 c103 159 166 220 230 220c39 0 66 -25 66 -61c0 -14 -3 -36 -9 -57l-57 -206c-10 -36 -14 -55 -14 -63c0 -9 7 -16 16 -16c14 0 32 16 61 53c7 8 14 17 21 26Z"/></g><g transform="translate(1055,-264)"><path stroke-width="1" transform="scale(0.707)" d="M235 103c-57 -84 -93 -114 -140 -114c-30 0 -46 20 -46 57c0 20 6 49 22 109l48 177c6 19 9 36 9 44c0 20 -9 23 -63 24v16c39 3 59 6 160 25l3 -2l-88 -322c-6 -20 -16 -50 -16 -66c0 -8 8 -15 16 -15c17 0 39 21 82 78zM276 588c0 -28 -23 -51 -49 -51 c-29 0 -48 21 -48 53c0 31 20 53 47 53s50 -26 50 -55Z"/><g transform="translate(196,0)"><path stroke-width="1" transform="scale(0.707)" d="M580 320h-500v52h500v-52zM580 128h-500v52h500v-52Z"/></g><g transform="translate(663,0)"><path stroke-width="1" transform="scale(0.707)" d="M394 0h-276v15c42 1 56 4 71 13c16 9 24 32 24 65v453c0 32 -9 47 -30 47c-10 0 -27 -4 -45 -11c-4 -2 -15 -6 -27 -11v14l180 91l8 -2v-600c0 -48 16 -58 95 -59v-15Z"/></g></g></g><g transform="translate(4582,0)"><path stroke-width="1" d="M235 103c-57 -84 -93 -114 -140 -114c-30 0 -46 20 -46 57c0 20 6 49 22 109l48 177c6 19 9 36 9 44c0 20 -9 23 -63 24v16c39 3 59 6 160 25l3 -2l-88 -322c-6 -20 -16 -50 -16 -66c0 -8 8 -15 16 -15c17 0 39 21 82 78zM276 588c0 -28 -23 -51 -49 -51 c-29 0 -48 21 -48 53c0 31 20 53 47 53s50 -26 50 -55Z"/><g transform="translate(278,362)"><path stroke-width="1" transform="scale(0.707)" d="M432 219c0 -67 -26 -125 -73 -166s-126 -67 -203 -67c-70 0 -113 22 -113 57c0 21 15 35 38 35c17 0 34 -7 64 -25c37 -24 57 -31 84 -31c74 0 131 65 131 149c0 69 -39 126 -101 148c-24 9 -47 11 -106 11v13c68 24 96 39 126 69c25 25 40 61 40 97 c0 63 -45 107 -110 107c-63 0 -108 -33 -149 -106l-15 4c22 60 37 86 67 113c36 32 80 49 130 49c92 0 156 -56 156 -137c0 -54 -25 -91 -94 -138c44 -19 63 -31 83 -53c29 -31 45 -78 45 -129Z"/></g></g><g transform="translate(5648,0)"><path stroke-width="1" d="M580 320h-500v52h500v-52zM580 128h-500v52h500v-52Z"/></g><g transform="translate(6642,0)"><path stroke-width="1" d="M404 -433l-13 -16c-128 97 -260 365 -260 613v172c0 248 132 516 260 613l13 -16c-122 -91 -192 -364 -192 -597v-172c0 -233 70 -506 192 -597Z"/><g transform="translate(491,0)"><g transform="translate(120,0)"><rect stroke="none" width="2212" height="60" x="0" y="220"/><g transform="translate(60,532)"><path stroke-width="1" transform="scale(0.707)" d="M474 104c-70 -93 -95 -113 -140 -113c-33 0 -47 16 -47 54c0 10 3 23 16 75l44 165c8 31 14 64 14 76c0 18 -9 29 -24 29c-37 0 -88 -49 -148 -142c-44 -68 -53 -90 -100 -248h-75l96 350c1 5 2 11 2 17c0 20 -13 26 -64 27v16l162 31l3 -2l-67 -218 c103 159 166 220 230 220c39 0 66 -25 66 -61c0 -14 -3 -36 -9 -57l-57 -206c-10 -36 -14 -55 -14 -63c0 -9 7 -16 16 -16c14 0 32 16 61 53c7 8 14 17 21 26Z"/><g transform="translate(353,0)"><path stroke-width="1" transform="scale(0.707)" d="M318 -142l-13 -16c-90 68 -185 230 -185 375v66c0 145 95 307 185 375l13 -16c-83 -62 -127 -227 -127 -359v-66c0 -132 44 -297 127 -359Z"/><g transform="translate(281,0)"><path stroke-width="1" transform="scale(0.707)" d="M474 104c-70 -93 -95 -113 -140 -113c-33 0 -47 16 -47 54c0 10 3 23 16 75l44 165c8 31 14 64 14 76c0 18 -9 29 -24 29c-37 0 -88 -49 -148 -142c-44 -68 -53 -90 -100 -248h-75l96 350c1 5 2 11 2 17c0 20 -13 26 -64 27v16l162 31l3 -2l-67 -218 c103 159 166 220 230 220c39 0 66 -25 66 -61c0 -14 -3 -36 -9 -57l-57 -206c-10 -36 -14 -55 -14 -63c0 -9 7 -16 16 -16c14 0 32 16 61 53c7 8 14 17 21 26Z"/></g><g transform="translate(635,0)"><path stroke-width="1" transform="scale(0.707)" d="M580 224h-224v-224h-52v224h-224v52h224v224h52v-224h224v-52Z"/></g><g transform="translate(1102,0)"><path stroke-width="1" transform="scale(0.707)" d="M394 0h-276v15c42 1 56 4 71 13c16 9 24 32 24 65v453c0 32 -9 47 -30 47c-10 0 -27 -4 -45 -11c-4 -2 -15 -6 -27 -11v14l180 91l8 -2v-600c0 -48 16 -58 95 -59v-15Z"/></g><path stroke-width="1" transform="translate(1456,0) scale(0.707)" d="M278 217c0 -145 -96 -307 -186 -375l-12 16c82 62 127 227 127 359v66c0 132 -45 297 -127 359l12 16c90 -68 186 -230 186 -375v-66Z"/></g></g><g transform="translate(929,-399)"><path stroke-width="1" transform="scale(0.707)" d="M475 137l-55 -137h-390v12l178 189c84 89 130 182 130 260c0 84 -57 141 -141 141c-69 0 -105 -32 -145 -130l-21 5c17 71 32 103 64 137c37 40 89 62 144 62c104 0 185 -77 185 -177c0 -78 -39 -154 -128 -247l-168 -176h239c45 0 58 9 95 66Z"/></g></g></g><path stroke-width="1" d="M360 164c0 -248 -132 -516 -261 -613l-12 16c121 91 192 364 192 597v172c0 233 -71 506 -192 597l12 16c129 -97 261 -365 261 -613v-172Z" transform="translate(2943,0)"/><g transform="translate(3435,737)"><path stroke-width="1" transform="scale(0.707)" d="M475 137l-55 -137h-390v12l178 189c84 89 130 182 130 260c0 84 -57 141 -141 141c-69 0 -105 -32 -145 -130l-21 5c17 71 32 103 64 137c37 40 89 62 144 62c104 0 185 -77 185 -177c0 -78 -39 -154 -128 -247l-168 -176h239c45 0 58 9 95 66Z"/></g></g></g></svg>