 <svg xmlns="http://www.w3.org/2000/svg" xmlns:xlink="http://www.w3.org/1999/xlink" width="26.903ex" height="5.179ex" viewBox="0 -1466.5 11583.3 2230" role="img" focusable="false" style="vertical-align: -1.773ex;" aria-hidden="true"><g stroke="currentColor" fill="currentColor" stroke-width="0" transform="matrix(1 0 0 -1 0 0)"><path stroke-width="1" d="M456 336c-39 3 -79 6 -118 6c-38 0 -101 -2 -119 -3c-7 -1 -10 -5 -10 -12v-139c0 -38 1 -87 15 -112c6 -12 18 -20 30 -26c12 -5 38 -6 66 -6c47 0 70 0 234 14l5 -5l-13 -53h-388c-9 5 -15 15 -20 25c-5 12 -6 27 -6 41v492c0 14 0 44 -9 64c-2 6 -10 11 -17 16 c-8 6 -38 13 -59 16l-1 20l7 7l148 1c70 0 171 6 242 6c18 0 33 0 46 -1l-2 -50l-4 -7c-69 4 -202 10 -209 10h-40c-5 -1 -10 -4 -13 -9c-8 -12 -11 -44 -11 -67v-166c0 -7 3 -11 10 -12c39 -3 159 -1 236 5l6 -7Z"/><g transform="translate(604,0)"><path stroke-width="1" d="M422 462l31 -29c1 -1 3 -3 3 -4c0 -3 -1 -4 -3 -5c-56 -39 -120 -104 -172 -165c26 -57 76 -151 107 -178c10 -9 22 -18 37 -18c12 0 23 6 33 11c14 8 25 16 38 27h8l8 -19c-23 -25 -47 -50 -75 -70c-16 -12 -33 -24 -53 -24c-17 0 -31 9 -43 21c-16 14 -27 33 -38 52 c-15 25 -48 87 -70 130h-7c-39 -60 -79 -122 -109 -199l-16 -4l-28 25v8c43 69 93 138 142 202c-29 59 -66 134 -100 169c-9 9 -22 15 -35 15c-21 0 -46 -13 -64 -25l-14 18c23 18 47 34 72 48c15 8 30 16 46 16c17 0 41 -4 54 -19c21 -23 62 -95 91 -151l6 -1 c36 48 95 118 139 169c1 2 3 2 6 2c2 0 4 0 6 -2Z"/></g><g transform="translate(1464,0)"><path stroke-width="1" d="M716 329h-662l7 40h661zM716 132h-662l7 40h661Z"/></g><g transform="translate(2554,0)"><g transform="translate(111,-200)"><path stroke-width="1" d="M484 453l-304 -406h791l-14 -97h-869c-18 0 -32 0 -32 16c0 4 2 8 9 17l346 463l-289 445v46c3 13 13 13 32 13h748l-14 -70h-659l257 -394c3 -4 7 -10 7 -16c0 -4 -2 -8 -9 -17Z"/></g><g transform="translate(1167,477)"><path stroke-width="1" transform="scale(0.707)" d="M210 18l-70 -24l-15 7c2 43 8 170 9 256c1 46 2 112 -10 136c-5 11 -14 20 -27 20c-21 0 -46 -16 -75 -35l-17 22c42 30 99 72 136 71c18 0 37 -4 50 -17c16 -15 18 -32 21 -51l8 -6c34 21 67 39 105 53c27 11 55 19 84 19s59 -7 77 -29c20 -23 20 -120 20 -184 c0 -54 0 -126 1 -145c2 -34 24 -51 47 -51s55 21 80 40h13l9 -21c-29 -28 -56 -49 -89 -68c-20 -11 -55 -21 -68 -21c-26 0 -46 8 -58 27c-12 17 -14 40 -14 61l5 171c0 29 -2 59 -7 87c-3 18 -9 35 -20 48c-17 18 -38 26 -63 26c-20 0 -40 -7 -58 -15 c-26 -12 -49 -28 -71 -46c-2 -47 -5 -99 -5 -151c0 -60 -2 -99 2 -180Z"/></g><g transform="translate(1167,-287)"><path stroke-width="1" transform="scale(0.707)" d="M216 392l-8 -210c0 -41 4 -77 12 -95c6 -13 18 -22 32 -22s30 3 42 9c18 10 34 22 50 36l13 -10v-11c-20 -27 -42 -50 -69 -70c-22 -14 -46 -27 -72 -27c-24 0 -47 7 -64 28c-14 18 -16 40 -16 84l6 221c0 30 -4 56 -11 70c-5 10 -14 15 -24 15c-22 0 -56 -17 -80 -32 l-13 18c24 19 57 42 81 54c18 9 40 21 59 21c14 0 34 -2 46 -18c14 -16 16 -40 16 -61zM230 625c-2 -33 -28 -56 -60 -56s-58 26 -58 58c2 34 34 56 64 56c34 0 54 -28 54 -58Z"/><g transform="translate(254,0)"><path stroke-width="1" transform="scale(0.707)" d="M716 329h-662l7 40h661zM716 132h-662l7 40h661Z"/></g><g transform="translate(789,0)"><path stroke-width="1" transform="scale(0.707)" d="M308 712l6 -12c-5 -89 -7 -179 -7 -268c0 -136 0 -334 3 -410l-84 -27l-12 5c5 139 8 279 8 419c0 49 0 122 -1 147s-21 46 -46 46h-83v27Z"/></g></g></g><g transform="translate(4964,0)"><path stroke-width="1" d="M216 392l-8 -210c0 -41 4 -77 12 -95c6 -13 18 -22 32 -22s30 3 42 9c18 10 34 22 50 36l13 -10v-11c-20 -27 -42 -50 -69 -70c-22 -14 -46 -27 -72 -27c-24 0 -47 7 -64 28c-14 18 -16 40 -16 84l6 221c0 30 -4 56 -11 70c-5 10 -14 15 -24 15c-22 0 -56 -17 -80 -32 l-13 18c24 19 57 42 81 54c18 9 40 21 59 21c14 0 34 -2 46 -18c14 -16 16 -40 16 -61zM230 625c-2 -33 -28 -56 -60 -56s-58 26 -58 58c2 34 34 56 64 56c34 0 54 -28 54 -58Z"/><g transform="translate(360,362)"><path stroke-width="1" transform="scale(0.707)" d="M241 382v-8c34 -3 67 -8 100 -19c23 -8 47 -19 65 -37c27 -27 40 -64 40 -103c0 -59 -27 -114 -69 -156c-52 -51 -123 -76 -196 -76c-57 0 -111 20 -156 55l-7 11l42 72h10c12 -20 25 -38 41 -54c25 -26 59 -44 95 -44c37 0 73 13 100 40c32 32 46 78 46 123 c0 43 -20 83 -49 114c-18 19 -43 28 -68 34c-36 9 -73 11 -110 11l1 26c30 7 61 15 89 28c22 10 43 22 59 38c28 28 43 65 43 103c0 27 -10 52 -29 71c-21 21 -50 28 -80 28c-17 0 -34 -6 -51 -13c-25 -11 -48 -25 -71 -40l-14 22c31 26 65 51 101 70c25 13 52 24 80 24 c39 0 80 -8 108 -37c26 -25 38 -61 38 -97c0 -45 -15 -90 -47 -122c-31 -30 -70 -52 -111 -64Z"/></g></g><g transform="translate(6111,0)"><path stroke-width="1" d="M716 329h-662l7 40h661zM716 132h-662l7 40h661Z"/></g><g transform="translate(7201,0)"><path stroke-width="1" d="M180 700c0 336 89 675 346 899h48l-17 -17c-230 -225 -301 -556 -301 -882s71 -657 301 -882l17 -17h-48c-257 224 -346 563 -346 899Z" transform="translate(0,-450)"/><g transform="translate(596,0)"><g transform="translate(120,0)"><rect stroke="none" width="2496" height="60" x="0" y="220"/><g transform="translate(60,570)"><path stroke-width="1" transform="scale(0.707)" d="M210 18l-70 -24l-15 7c2 43 8 170 9 256c1 46 2 112 -10 136c-5 11 -14 20 -27 20c-21 0 -46 -16 -75 -35l-17 22c42 30 99 72 136 71c18 0 37 -4 50 -17c16 -15 18 -32 21 -51l8 -6c34 21 67 39 105 53c27 11 55 19 84 19s59 -7 77 -29c20 -23 20 -120 20 -184 c0 -54 0 -126 1 -145c2 -34 24 -51 47 -51s55 21 80 40h13l9 -21c-29 -28 -56 -49 -89 -68c-20 -11 -55 -21 -68 -21c-26 0 -46 8 -58 27c-12 17 -14 40 -14 61l5 171c0 29 -2 59 -7 87c-3 18 -9 35 -20 48c-17 18 -38 26 -63 26c-20 0 -40 -7 -58 -15 c-26 -12 -49 -28 -71 -46c-2 -47 -5 -99 -5 -151c0 -60 -2 -99 2 -180Z"/><g transform="translate(469,0)"><path stroke-width="1" transform="translate(0,-19) scale(0.707)" d="M301 -163v-24c-48 4 -90 42 -118 79c-31 43 -43 95 -52 146c-14 80 -18 161 -18 242c0 77 5 155 20 230c11 54 27 108 58 154c25 35 69 67 110 74v-27c-32 -8 -65 -38 -81 -72c-22 -47 -33 -98 -41 -150c-11 -71 -14 -143 -14 -215c0 -86 3 -172 17 -256 c6 -29 12 -58 22 -86c7 -20 16 -39 30 -55c17 -20 47 -36 67 -40Z"/><g transform="translate(274,0)"><path stroke-width="1" transform="scale(0.707)" d="M210 18l-70 -24l-15 7c2 43 8 170 9 256c1 46 2 112 -10 136c-5 11 -14 20 -27 20c-21 0 -46 -16 -75 -35l-17 22c42 30 99 72 136 71c18 0 37 -4 50 -17c16 -15 18 -32 21 -51l8 -6c34 21 67 39 105 53c27 11 55 19 84 19s59 -7 77 -29c20 -23 20 -120 20 -184 c0 -54 0 -126 1 -145c2 -34 24 -51 47 -51s55 21 80 40h13l9 -21c-29 -28 -56 -49 -89 -68c-20 -11 -55 -21 -68 -21c-26 0 -46 8 -58 27c-12 17 -14 40 -14 61l5 171c0 29 -2 59 -7 87c-3 18 -9 35 -20 48c-17 18 -38 26 -63 26c-20 0 -40 -7 -58 -15 c-26 -12 -49 -28 -71 -46c-2 -47 -5 -99 -5 -151c0 -60 -2 -99 2 -180Z"/></g><g transform="translate(744,0)"><path stroke-width="1" transform="scale(0.707)" d="M396 276h313l-5 -40h-308v-303l-40 -7v310h-310l7 40h303v304l40 6v-310Z"/></g><g transform="translate(1278,0)"><path stroke-width="1" transform="scale(0.707)" d="M308 712l6 -12c-5 -89 -7 -179 -7 -268c0 -136 0 -334 3 -410l-84 -27l-12 5c5 139 8 279 8 419c0 49 0 122 -1 147s-21 46 -46 46h-83v27Z"/></g><path stroke-width="1" transform="translate(1632,-17) scale(0.707)" d="M86 709v27c34 -7 66 -28 90 -54c40 -44 60 -101 75 -158c20 -83 25 -167 25 -252c0 -84 -4 -169 -20 -252c-11 -53 -26 -106 -61 -148c-27 -33 -78 -57 -109 -61v24c27 7 59 22 79 47c12 15 19 33 25 51c9 27 16 52 20 79c13 87 14 176 14 264c0 79 -5 158 -19 235 c-11 53 -24 106 -55 151c-16 22 -39 38 -64 47Z"/></g></g><g transform="translate(1071,-422)"><path stroke-width="1" transform="scale(0.707)" d="M472 80l-23 -78h-437v16c57 58 113 117 166 179c35 41 70 83 98 129c35 56 58 117 58 182c0 29 -6 70 -34 99c-20 22 -50 33 -79 33c-22 0 -44 -4 -63 -14c-28 -15 -50 -30 -74 -50l-20 19c30 33 64 63 104 84c33 18 69 29 107 29c41 0 80 -15 109 -44 c30 -29 42 -70 42 -111c0 -53 -22 -102 -48 -148c-25 -46 -56 -88 -88 -130c-45 -60 -93 -118 -143 -176c-1 -1 -2 -4 -1 -6c2 -4 7 -5 12 -5h309Z"/></g></g></g><path stroke-width="1" d="M415 700c0 -336 -89 -675 -346 -899h-47l16 17c231 225 301 556 301 882s-70 657 -301 882l-16 17h47c257 -224 346 -563 346 -899Z" transform="translate(3333,-450)"/><g transform="translate(3928,876)"><path stroke-width="1" transform="scale(0.707)" d="M472 80l-23 -78h-437v16c57 58 113 117 166 179c35 41 70 83 98 129c35 56 58 117 58 182c0 29 -6 70 -34 99c-20 22 -50 33 -79 33c-22 0 -44 -4 -63 -14c-28 -15 -50 -30 -74 -50l-20 19c30 33 64 63 104 84c33 18 69 29 107 29c41 0 80 -15 109 -44 c30 -29 42 -70 42 -111c0 -53 -22 -102 -48 -148c-25 -46 -56 -88 -88 -130c-45 -60 -93 -118 -143 -176c-1 -1 -2 -4 -1 -6c2 -4 7 -5 12 -5h309Z"/></g></g></g></svg>