<?xml version="1.0" encoding="UTF-8" standalone="no"?>
<svg
   xmlns:dc="http://purl.org/dc/elements/1.1/"
   xmlns:cc="http://creativecommons.org/ns#"
   xmlns:rdf="http://www.w3.org/1999/02/22-rdf-syntax-ns#"
   xmlns:svg="http://www.w3.org/2000/svg"
   xmlns="http://www.w3.org/2000/svg"
   version="1.1"
   id="svg2"
   viewBox="0 0 744.09449 300.00001"
   height="300"
   width="744.09448">
  <defs
     id="defs4" />
  <metadata
     id="metadata7">
    <rdf:RDF>
      <cc:Work
         rdf:about="">
        <dc:format>image/svg+xml</dc:format>
        <dc:type
           rdf:resource="http://purl.org/dc/dcmitype/StillImage" />
        <dc:title></dc:title>
      </cc:Work>
    </rdf:RDF>
  </metadata>
  <g
     transform="translate(0,-752.3622)"
     id="layer1">
    <path
       id="path4147"
       d="m 376.17148,1041.0395 0,-4.6709 6.10024,0.3076 c 12.80231,0.6456 20.45794,-1.7816 22.95401,-7.2772 0.81763,-1.8003 0.85162,-5.0875 0.86133,-83.31074 0.007,-59.7128 -0.13007,-81.90445 -0.51539,-83.19056 -1.86042,-6.20951 -8.91668,-8.7064 -22.83955,-8.08194 l -6.56064,0.29431 0,-4.60562 0,-4.60557 10.38176,0 10.38175,0 -0.28228,-2.87749 c -1.9254,-19.62663 -3.40817,-26.6341 -7.18465,-33.95413 -3.39772,-6.58586 -8.48556,-10.52964 -17.44014,-13.51848 -7.1697,-2.39309 -10.95696,-2.78787 -26.93312,-2.80748 -10.76766,-0.0132 -15.26088,0.14202 -16.69538,0.57679 -2.58771,0.78429 -5.04423,2.99669 -5.64909,5.08768 -0.33668,1.1639 -0.44505,27.05774 -0.35098,83.86433 0.12499,75.48897 0.1982,82.29378 0.89902,83.5713 1.77115,3.22861 5.49922,5.64648 10.32841,6.69864 1.24306,0.27084 8.73442,0.60654 16.64746,0.74606 l 14.38736,0.2536 0,4.31809 0,4.31809 -55.47764,0 -55.47763,0 0,-4.37373 0,-4.37378 13.32137,0 c 10.20946,0 14.10813,-0.16515 16.68932,-0.70697 5.73864,-1.20464 9.24336,-3.36194 11.09978,-6.83236 l 1.0157,-1.89875 0.12012,-81.65237 c 0.0864,-58.73656 -0.0233,-82.18502 -0.39101,-83.55047 -0.63507,-2.3585 -3.02672,-4.68951 -5.61869,-5.47625 -2.6877,-0.81579 -29.65408,-0.82055 -34.16481,-0.006 -11.74301,2.12049 -18.13367,4.9626 -23.33837,10.37922 -5.68293,5.91432 -9.11494,18.27969 -10.64027,38.33627 l -0.55754,7.33117 -3.5648,0.13446 c -3.4466,0.13004 -3.56504,0.0995 -3.57211,-0.92079 -0.0112,-1.60802 5.0908,-62.59974 5.33554,-63.7841 l 0.21406,-1.03589 89.53811,0 c 49.24597,0 89.55277,0.15538 89.57067,0.3453 0.0179,0.18991 1.20987,14.12263 2.64884,30.96158 l 2.61629,30.61627 68.63625,0.11664 68.63632,0.11658 3.99368,32.34126 c 2.19649,17.78771 3.99181,32.60026 3.9895,32.91677 -0.005,0.41055 -1.02721,0.5755 -3.57355,0.5755 l -3.56933,0 -1.04862,-7.94183 c -1.08913,-8.24876 -3.05187,-17.21181 -4.69627,-21.44646 -6.61845,-17.04342 -17.86752,-24.82206 -38.68067,-26.74742 -7.42604,-0.68694 -56.48737,-0.65767 -59.23966,0.0354 -2.94961,0.74272 -4.99985,2.91858 -5.66259,6.00959 -0.37264,1.73811 -0.4829,12.9667 -0.38337,39.04128 l 0.13968,36.6014 8.28712,0.13107 c 12.10941,0.19152 29.32173,-0.6145 32.68804,-1.53072 8.22583,-2.23878 13.25678,-7.5551 15.66714,-16.55577 0.42749,-1.59623 0.85184,-5.62905 1.00541,-9.55319 l 0.26563,-6.79082 3.61632,0 3.61628,0 0,38.92278 0,38.92277 -3.56805,-0.13451 -3.5681,-0.13446 -0.2815,-7.1361 c -0.15985,-4.05305 -0.6113,-8.50801 -1.04493,-10.31148 -1.57551,-6.55288 -5.07796,-11.0542 -10.64385,-13.67936 -5.44588,-2.56859 -7.52843,-2.7967 -27.73879,-3.03837 l -18.53091,-0.22153 0,41.04521 c 0,28.22328 0.15754,41.67088 0.50436,43.04818 0.27739,1.1017 1.12972,2.6427 1.89397,3.4244 2.67725,2.7384 3.43709,2.8071 31.03879,2.8071 31.20537,0 38.61943,-0.5428 47.82262,-3.5012 18.334,-5.8934 28.48842,-19.9873 33.63375,-46.68188 0.36606,-1.89914 0.66558,-3.60837 0.66562,-3.79827 5e-5,-0.18991 -2.5896,-0.34529 -5.75486,-0.34529 l -5.75492,0 0,-4.28897 0,-4.28892 5.98828,-0.56087 c 3.29358,-0.30845 6.27896,-0.6724 6.63421,-0.80872 0.35521,-0.13633 0.77479,-0.76149 0.93238,-1.38929 0.28213,-1.12415 0.35255,-1.13987 4.64359,-1.03733 4.34215,0.10382 4.37176,0.0968 8.61764,-2.01896 2.3433,-1.16771 5.4964,-3.12347 7.0069,-4.34618 5.0731,-4.10668 6.3157,-5.80908 32.8639,-45.02553 21.9159,-32.37377 23.5506,-34.83304 23.5506,-35.43197 0,-1.43531 -53.2962,-81.32492 -56.313,-84.41171 -5.6959,-5.82817 -9.121,-7.02138 -21.26365,-7.40758 l -8.74751,-0.27821 -0.13176,-4.48886 -0.13176,-4.48885 40.53148,0 40.5314,0 0,4.60395 0,4.60395 -1.8114,0 c -4.9464,0 -12.7887,2.70734 -15.3476,5.29835 -2.8116,2.84686 -2.2128,4.70286 4.6197,14.31942 2.7185,3.8263 7.3254,10.44825 10.2374,14.71545 2.912,4.26721 7.5117,10.99561 10.2217,14.95197 4.1743,6.09435 11.8163,18.2784 12.519,19.95984 0.3145,0.75254 1.0033,-0.20483 14.5419,-20.21295 6.8536,-10.1287 13.9099,-20.38398 15.6805,-22.78955 7.2854,-9.89755 8.1367,-14.931 3.4139,-20.18391 -3.0508,-3.3933 -8.9576,-6.05862 -13.4268,-6.05862 l -1.5147,0 0,-4.60395 0,-4.60395 34.9901,0 34.99,0 0,4.53697 0,4.53697 -5.6398,0.26106 c -14.3798,0.66563 -25.4222,5.44022 -33.3583,14.42368 -1.4653,1.65865 -7.26,9.78471 -12.8772,18.05793 -5.6172,8.27322 -14.3586,21.15393 -19.4252,28.62387 -5.0667,7.4699 -9.767,14.34602 -10.4451,15.28026 l -1.2329,1.69858 1.5729,1.98458 c 1.7664,2.22876 3.5187,4.88874 10.8609,16.48702 2.8053,4.43128 10.28,15.72248 16.6105,25.09152 6.3305,9.36908 16.6381,24.70022 22.9058,34.06925 12.0905,18.07303 14.5854,21.11787 19.1222,23.3371 4.2755,2.0914 7.4393,2.67604 16.1649,2.98695 l 8.172,0.29117 0,4.30252 0,4.30252 -40.5148,0 -40.5148,0 0,-4.32079 0,-4.32079 3.746,-0.54776 c 9.7176,-1.42087 15.9826,-5.30729 14.982,-9.2939 -0.1498,-0.59696 -10.692,-16.75559 -23.4272,-35.90813 -12.7351,-19.15249 -23.3894,-35.20838 -23.6762,-35.67972 -0.2868,-0.47135 -0.6189,-0.75338 -0.7381,-0.62678 -0.1191,0.1266 -6.0271,8.93167 -13.1289,19.56677 -7.1018,10.63516 -16.7634,24.90447 -21.4702,31.70967 -4.7069,6.80516 -8.7665,13.12409 -9.0215,14.04204 -1.4711,5.29629 0.9779,10.52986 6.4372,13.75646 1.8139,1.0721 5.5941,2.19698 8.8626,2.63724 l 2.1869,0.29461 0,4.34554 0,4.34554 -25.2946,0 c -13.912,0 -25.40488,0.17851 -25.53973,0.39665 -0.19315,0.31258 -10.39826,62.06089 -10.39826,62.91729 0,0.1213 -38.01716,0.2206 -84.48254,0.2206 l -84.48253,0 0,-4.6709 z M 6.0136729,977.84237 l 0,-4.33356 9.5532101,-0.19211 c 10.65395,-0.21431 12.89203,-0.65875 16.3237,-3.24138 1.15436,-0.86874 2.45594,-2.44435 3.12799,-3.78644 l 1.15099,-2.29859 0,-81.95036 0,-81.95038 -1.00849,-2.18347 c -2.65438,-5.74695 -7.86864,-7.47563 -21.6664,-7.18308 l -7.4818401,0.15865 4.2e-4,-4.48886 4.2e-4,-4.48885 46.9603201,0 46.960324,0 0,4.64398 0,4.64399 -10.704194,-0.3213 c -14.21511,-0.42668 -19.01904,0.39768 -23.06342,3.95769 -4.10837,3.61634 -3.75461,-4.7528 -3.75461,88.82299 l 0,82.64098 1.01756,2.2039 c 0.87264,1.8901 1.39716,2.38183 3.68316,3.45299 l 2.66561,1.24904 14.27225,0.15562 c 20.947827,0.22851 32.182977,-0.82763 41.665767,-3.91667 3.72711,-1.21412 10.30027,-4.72948 13.23249,-7.07673 7.92968,-6.34786 13.95976,-17.33065 17.30529,-31.51859 1.14558,-4.85829 2.66981,-14.50773 3.32713,-21.06312 l 0.31161,-3.10766 3.6818,0 3.68181,0 -0.27876,1.9567 c -0.15332,1.07617 -1.93681,17.3914 -3.96333,36.25611 -2.02651,18.86472 -3.79858,34.97276 -3.93793,35.79572 l -0.25337,1.4963 -76.404757,0 -76.4047501,0 0,-4.33351 z m 77.3464101,-59.66143 0,-3.68317 1.57088,0 c 2.50113,0 8.08861,-1.19968 11.055,-2.37362 3.952374,-1.56412 7.980307,-5.46022 10.288077,-9.95127 1.00577,-1.95733 4.26147,-10.08484 7.23489,-18.06119 2.97342,-7.97636 12.71318,-32.73408 21.64392,-55.01722 8.93074,-22.28315 17.00813,-42.58658 17.94977,-45.11875 0.94163,-2.53218 2.03907,-5.16113 2.43875,-5.84212 1.12078,-1.9096 3.26096,-2.85389 5.81555,-2.56595 2.6465,0.29829 4.10187,1.54989 5.17335,4.44898 0.43044,1.16462 6.04881,15.48047 12.48527,31.813 6.43647,16.33251 17.17685,43.67999 23.86752,60.77217 15.11037,38.60136 14.30045,36.68003 16.30867,38.68823 2.20935,2.20936 4.3881,2.76385 12.07033,3.07191 l 6.33044,0.25384 0,3.61264 0,3.61265 -1.49629,-0.3338 c -1.70451,-0.3802 -21.57076,-0.32441 -42.12616,0.11841 l -13.92696,0.29995 0,-3.64456 0,-3.64456 4.71905,-0.27825 c 5.55918,-0.32781 8.96703,-1.24899 10.44651,-2.82381 1.76083,-1.87429 1.18545,-4.14425 -5.14219,-20.28661 -3.17626,-8.10296 -5.89802,-15.10131 -6.04834,-15.55184 -0.25871,-0.77543 -1.79658,-0.81231 -28.77904,-0.69061 -27.7656,0.12527 -28.53217,0.15248 -29.52357,1.0494 -1.35612,1.22679 -2.37313,3.29584 -4.80423,9.77399 -1.1185,2.98046 -2.87183,7.33283 -3.89629,9.67193 -1.02446,2.33905 -2.10359,5.56045 -2.39806,7.15859 -0.48337,2.62335 -0.44372,3.11296 0.40793,5.03828 1.56152,3.53009 5.58635,5.81409 11.66689,6.6207 l 2.24746,0.29814 0,3.62384 0,3.62384 -22.78957,0 -22.789557,0 0,-3.68316 z m 97.023987,-51.0504 c -0.33997,-1.30006 -25.86449,-65.8417 -25.9893,-65.71689 -0.31425,0.31425 -25.91596,65.52168 -25.91596,66.00781 0,0.4548 5.49868,0.57639 26.06603,0.57639 25.30338,0 26.0594,-0.0255 25.83923,-0.86731 z"
       style="fill:#000000" />
  </g>
</svg>
